<?xml version="1.0" standalone="no"?>
<!DOCTYPE svg PUBLIC "-//W3C//DTD SVG 20010904//EN"
 "http://www.w3.org/TR/2001/REC-SVG-20010904/DTD/svg10.dtd">
<svg version="1.0" xmlns="http://www.w3.org/2000/svg"
 width="500.000000pt" height="500.000000pt" viewBox="0 0 500.000000 500.000000"
 preserveAspectRatio="xMidYMid meet">
<metadata>
Created by potrace 1.15, written by Peter Selinger 2001-2017
</metadata>
<g transform="translate(0.000000,500.000000) scale(0.100000,-0.100000)"
fill="#000000" stroke="none">
<path d="M3607 3530 c3 -11 9 -18 13 -15 5 3 6 -4 3 -15 -3 -11 -11 -20 -18
-20 -23 0 -45 -30 -45 -60 0 -25 -3 -28 -22 -25 -50 10 -58 -1 -58 -75 l0 -69
48 -3 47 -3 -1 -37 0 -38 64 0 c55 0 63 2 52 14 -6 8 -10 25 -8 38 3 21 9 23
81 28 54 3 81 10 87 20 5 8 9 44 9 80 l-1 65 -13 -50 c-9 -36 -13 -43 -15 -25
-2 18 -4 20 -7 8 -8 -33 -34 8 -36 57 -1 43 -2 45 -37 51 -103 16 -105 17
-108 57 -2 28 -8 37 -22 37 -13 0 -17 -5 -13 -20z"/>
<path d="M1720 3001 c-16 -4 -28 -17 -34 -39 l-9 -32 -116 -1 c-156 -2 -173
-6 -183 -46 l-9 -33 -69 0 c-74 0 -90 -11 -90 -59 0 -18 -7 -20 -72 -23 l-73
-3 -3 -31 c-3 -27 -8 -32 -38 -37 -23 -4 -50 -21 -80 -51 l-46 -45 4 -96 c2
-71 7 -98 18 -105 8 -6 56 -9 105 -8 l90 3 10 33 c7 23 15 32 31 32 42 0 54
11 54 46 l0 34 70 0 c74 0 90 11 90 59 0 20 6 21 88 21 117 0 130 5 138 46 l6
34 149 0 c162 0 212 11 224 49 6 20 13 21 171 21 l164 0 0 -23 c0 -43 15 -47
171 -47 141 0 148 -1 154 -21 12 -38 63 -59 141 -59 l72 0 6 -34 c8 -41 19
-46 97 -46 l59 0 0 -30 c0 -37 27 -50 106 -50 l54 0 0 -34 c0 -32 2 -35 40
-41 36 -6 40 -10 40 -35 0 -34 14 -40 91 -40 l59 0 0 -39 c0 -29 5 -41 18 -44
16 -4 16 -5 0 -6 -14 -1 -18 -10 -18 -35 0 -33 -2 -35 -37 -38 -36 -3 -38 -5
-41 -40 l-3 -38 -59 0 c-79 0 -90 -5 -90 -46 0 -33 -1 -34 -40 -34 -28 0 -40
-4 -40 -15 0 -8 -11 -25 -25 -39 -19 -19 -37 -26 -77 -28 -52 -3 -53 -4 -56
-35 l-3 -33 -67 -1 c-37 0 -87 -4 -112 -7 -42 -7 -45 -9 -48 -39 l-3 -33 -122
-1 c-165 -2 -181 -6 -185 -47 l-3 -32 -280 0 -279 0 0 30 c0 43 -26 50 -181
50 l-129 0 0 34 c0 31 -3 34 -37 40 -21 3 -57 6 -79 6 -36 0 -43 3 -48 25 -8
30 -41 45 -101 45 -43 0 -44 0 -47 38 l-3 37 -81 3 c-75 3 -82 5 -92 28 -26
55 -89 47 -117 -16 -20 -45 -18 -201 3 -222 6 -6 41 -14 76 -16 l65 -4 3 -37
3 -36 73 -3 c71 -3 72 -3 72 -30 0 -42 17 -52 91 -52 l68 0 3 -32 3 -33 118
-9 c112 -9 117 -10 117 -31 0 -13 6 -28 14 -34 9 -8 148 -10 497 -9 l483 3 8
33 c8 29 12 32 47 32 21 0 72 3 114 6 l77 7 0 32 0 32 107 6 c111 6 123 12
123 55 0 19 5 22 38 22 20 0 54 3 74 6 33 6 38 11 44 40 5 29 10 33 43 36 34
3 36 5 39 40 l3 37 72 3 72 3 3 38 c3 36 4 37 43 37 38 0 39 1 39 35 0 31 3
35 28 35 36 0 49 10 55 40 4 25 4 25 6 -2 1 -20 6 -28 20 -28 32 0 51 -11 51
-30 0 -37 12 -50 45 -50 32 0 34 -2 37 -37 3 -36 5 -38 40 -41 35 -3 37 -5 40
-40 l3 -37 110 0 110 0 0 110 0 110 -37 3 c-37 3 -38 4 -38 43 0 38 -1 39 -34
39 -36 0 -46 12 -46 56 0 21 -5 24 -35 24 -32 0 -35 3 -35 28 0 15 -5 33 -11
39 -8 8 -8 13 0 17 6 4 11 23 11 42 0 32 2 34 33 34 25 1 36 8 52 33 16 24 32
35 69 44 27 7 54 17 60 23 16 16 21 247 6 265 -9 11 -35 15 -104 15 -98 0
-116 -7 -116 -46 0 -17 -8 -24 -32 -29 -37 -8 -48 -20 -48 -51 0 -17 -8 -23
-35 -28 -27 -5 -35 -12 -35 -29 0 -31 -10 -42 -45 -54 -24 -8 -31 -16 -34 -44
l-5 -34 -5 40 c-6 38 -8 40 -43 43 -36 3 -38 5 -38 37 0 39 -11 45 -90 45
l-59 0 -3 38 c-3 35 -5 37 -40 40 -33 3 -37 6 -40 35 l-3 32 -77 9 -78 9 0 34
0 33 -75 0 c-73 0 -75 1 -75 24 0 51 -7 56 -86 56 -72 0 -74 1 -74 24 0 50
-20 56 -170 56 l-138 0 -6 34 c-5 28 -12 35 -37 40 -43 8 -748 6 -779 -3z"/>
</g>
</svg>
